PathFileType	4	(X/Y/Z)	C:\Users\Basilio\Documents\Thesis Gigler\squatting_fais\c3dfiles\075\SJ_pre4\markers_experimental.trc
DataRate	CameraRate	NumFrames	NumMarkers	Units	OrigDataRate	OrigDataStartFrame	OrigNumFrames
200.000000	200.000000	4	61	mm	200.000000	1218	1624
Frame#	Time	FHD			LBHD			RBHD			C7			T10			CLAV			LSHO			LUUPA			LMUPA			LDUPA			LLEP			LMEP			LRAD			LUL			LRFIN			RSHO			RUPA1			RMUPA			RDUPA			RLEP			RMEP			RRAD			RUL			RUFIN			LASI			RASI			USACR			LSACR			RSACR			LTHI1			LTHI2			LTHI3			LTHI4			LLFC			LMFC			LTIB1			LTIB2			LTIB3			LTIB4			LLMAL			LMMAL			LHEE			LMT1			LMT2			LMT5			RTHI			RTHI2			RTHI3			RTHI4			RLFC			RMFC			RTIB1			RTIB2			RTIB3			RTIB4			RLMAL			RMMAL			RHEE			RMT1			RMT2			RMT5			
		X1	Y1	Z1	X2	Y2	Z2	X3	Y3	Z3	X4	Y4	Z4	X5	Y5	Z5	X6	Y6	Z6	X7	Y7	Z7	X8	Y8	Z8	X9	Y9	Z9	X10	Y10	Z10	X11	Y11	Z11	X12	Y12	Z12	X13	Y13	Z13	X14	Y14	Z14	X15	Y15	Z15	X16	Y16	Z16	X17	Y17	Z17	X18	Y18	Z18	X19	Y19	Z19	X20	Y20	Z20	X21	Y21	Z21	X22	Y22	Z22	X23	Y23	Z23	X24	Y24	Z24	X25	Y25	Z25	X26	Y26	Z26	X27	Y27	Z27	X28	Y28	Z28	X29	Y29	Z29	X30	Y30	Z30	X31	Y31	Z31	X32	Y32	Z32	X33	Y33	Z33	X34	Y34	Z34	X35	Y35	Z35	X36	Y36	Z36	X37	Y37	Z37	X38	Y38	Z38	X39	Y39	Z39	X40	Y40	Z40	X41	Y41	Z41	X42	Y42	Z42	X43	Y43	Z43	X44	Y44	Z44	X45	Y45	Z45	X46	Y46	Z46	X47	Y47	Z47	X48	Y48	Z48	X49	Y49	Z49	X50	Y50	Z50	X51	Y51	Z51	X52	Y52	Z52	X53	Y53	Z53	X54	Y54	Z54	X55	Y55	Z55	X56	Y56	Z56	X57	Y57	Z57	X58	Y58	Z58	X59	Y59	Z59	X60	Y60	Z60	X61	Y61	Z61	

1219	6.09	-236.3753204345704	1661.59814453125	-871.9760742187502	-393.7372131347657	1561.76220703125	-945.793395996094	-355.2746582031251	1593.196411132813	-791.8939208984377	-437.9149169921876	1447.533569335938	-890.2583618164065	-482.1084899902345	1124.80712890625	-890.6040649414065	-292.6371154785157	1380.535278320313	-878.790222167969	-314.4712829589844	1420.163940429688	-1040.442626953125	-345.2969360351563	1266.113403320313	-1206.113037109375	-317.3605957031251	1226.962646484375	-1189.641479492188	-341.1916198730469	1204.653198242188	-1240.880737304688	-342.3977661132813	1120.141967773438	-1262.326171875	-428.6450195312501	1120.285034179688	-1231.107788085938	-370.0539855957032	929.4084472656252	-1104.734252929688	-322.8103942871094	891.7789306640627	-1150.410278320313	-329.1098327636719	917.6502075195315	-1056.743530273438	-341.1940612792969	1417.340698242188	-720.2822875976564	-402.3057556152345	1267.191284179688	-563.7023315429689	-375.8147277832032	1225.00244140625	-570.6625976562501	-413.7944641113282	1207.23486328125	-526.9989013671876	-418.952117919922	1137.543701171875	-504.4021606445314	-495.6220092773439	1119.023803710938	-535.4606933593751	-355.2155456542969	909.4392700195315	-615.4439086914064	-397.5552062988282	936.229919433594	-673.7648925781251	-336.1546020507813	932.8869628906252	-708.5081787109376	-332.8458557128907	924.3662719726565	-1006.94921875	-336.4724121093751	939.5714111328127	-762.3991088867189	-485.8392639160157	1025.28564453125	-893.4028930664065	-494.5215759277345	993.368347167969	-920.873718261719	-496.0651855468751	995.784851074219	-863.1048583984377	-359.8845214843751	708.2513427734376	-1101.314575195313	-313.4839172363282	638.4546508789064	-1108.64306640625	-267.6637573242188	652.0447387695314	-1091.31201171875	-327.4895629882813	579.4815063476564	-1103.495361328125	-308.8671569824219	476.1932067871095	-1101.816650390625	-268.3436584472657	462.4353942871095	-984.6024169921877	-261.6306457519532	348.3497009277344	-1074.740356445313	-324.7070922851563	316.0567932128907	-1124.871704101563	-285.9226989746094	305.3450622558594	-1104.828491210938	-303.6271972656251	226.8698120117188	-1079.436279296875	-397.6739501953126	93.22672271728517	-1101.998291015625	-361.3409729003907	104.9607849121094	-1019.972961425781	-442.2358398437501	42.70736694335938	-1053.238403320313	-232.7154388427735	79.43130493164064	-1057.11083984375	-239.6370697021485	83.25762939453126	-1106.469970703125	-279.5947265625001	55.99707412719728	-1151.980224609375	-393.8469543457032	756.5732421875001	-674.6081542968751	-345.3343811035157	712.9183349609376	-667.6255493164064	-315.1533813476563	724.0520019531251	-676.3093261718751	-354.9496154785157	628.0861816406251	-666.2022705078126	-333.8374023437501	478.3948669433595	-682.3702392578126	-286.5039367675782	464.5982360839845	-797.635192871094	-287.6791381835938	326.5299987792969	-731.9573364257814	-353.3626708984376	257.7149963378907	-677.9488525390626	-315.8439331054688	247.3775634765626	-705.0553588867189	-325.3648071289063	203.1867980957032	-742.3560180664064	-412.3936157226564	88.53183746337892	-707.7969970703126	-365.9041748046876	109.3082427978516	-784.3842773437502	-446.9070129394532	44.17819213867188	-773.3162231445315	-245.2397155761719	75.73922729492189	-723.4565429687501	-258.5431213378907	75.54711914062501	-683.7331542968751	-301.3442077636719	44.58184432983399	-642.2340087890626	
1220	6.095	-236.4287567138672	1661.351318359375	-871.9027099609377	-393.9371948242189	1561.663208007813	-945.727478027344	-355.2905883789063	1593.017944335938	-791.8812255859377	-438.1454467773439	1447.39990234375	-890.1555786132815	-482.541717529297	1124.59814453125	-890.260925292969	-292.9041442871094	1380.390258789063	-878.7546997070315	-314.8115234375001	1419.970581054688	-1040.427856445313	-346.1609802246094	1265.735473632813	-1205.888671875	-318.5231323242188	1226.844970703125	-1189.836547851563	-342.1002502441407	1204.422973632813	-1240.681396484375	-343.3363342285157	1119.7412109375	-1261.9375	-429.4480895996095	1119.923217773438	-1230.639282226563	-370.7803649902344	929.026062011719	-1104.410888671875	-323.6018371582032	891.445251464844	-1150.21728515625	-330.2109680175782	917.535095214844	-1056.860473632813	-341.3030090332032	1417.256958007813	-720.1549682617189	-402.5275878906251	1267.21826171875	-563.4636840820314	-376.0252380371094	1224.933471679688	-570.4832153320314	-414.0236206054689	1207.270141601563	-526.7701416015626	-419.1558837890626	1137.55810546875	-504.1475524902345	-495.7373046875001	1118.978759765625	-535.2437744140626	-355.5001831054688	909.391784667969	-615.0910034179689	-397.7788696289064	936.1356201171877	-673.4261474609376	-336.2295532226563	932.7808837890627	-708.1118164062501	-333.4323425292969	924.2421875000002	-1006.745971679688	-336.6832885742188	939.479675292969	-762.1063232421876	-486.2075805664064	1025.1044921875	-893.0374755859377	-495.0069274902345	993.180358886719	-920.421569824219	-496.4561767578126	995.5373535156252	-862.7407226562502	-360.3319396972657	708.1879272460939	-1101.138061523438	-313.8233947753907	638.4361572265626	-1108.558837890625	-268.0429382324219	652.0700683593751	-1091.311279296875	-327.8686523437501	579.3892822265626	-1103.368530273438	-308.9884338378907	476.2173156738282	-1101.667114257813	-268.3549499511719	462.4448547363282	-984.595886230469	-261.0039367675782	348.2628784179688	-1074.184448242188	-325.3554077148438	316.8033752441407	-1125.198608398438	-285.1880187988282	305.7695617675782	-1104.9716796875	-303.6265563964844	226.8826141357422	-1079.416015625	-397.6349182128907	93.20920562744142	-1101.880004882813	-361.3320617675782	104.9451751708985	-1019.944152832031	-442.2434387207032	42.67399597167969	-1053.233520507813	-232.5847625732422	79.42900848388673	-1057.096923828125	-239.6582336425782	83.3040008544922	-1106.452270507813	-279.6528625488282	55.98392486572267	-1152.064086914063	-393.6781005859376	756.5359497070314	-674.2891845703126	-345.1038818359376	712.8900756835939	-667.3677368164064	-314.9619750976563	724.0136718750001	-676.1931152343751	-354.6541137695313	627.9943847656251	-666.0010375976564	-333.5650024414063	478.301239013672	-682.2319335937501	-286.4427185058594	464.5023803710939	-797.543640136719	-287.5190734863282	326.4271545410157	-732.0668945312501	-353.0126342773438	257.5772399902344	-677.8723754882814	-315.5332336425782	247.2766723632813	-705.0302734375001	-325.1596679687501	203.0992126464844	-742.3480834960939	-412.1551208496095	88.5194778442383	-707.7357177734376	-365.8333435058594	109.2382507324219	-784.4512939453127	-446.8496398925782	44.23078536987305	-773.309753417969	-245.0438232421876	75.47987365722658	-723.6049804687501	-258.3384704589844	75.25478363037111	-683.8316650390626	-301.1537780761719	44.45155334472657	-642.2882080078126	
1221	6.100000000000001	-236.4592285156251	1661.135864257813	-871.8887939453127	-394.0834960937501	1561.457641601563	-945.6340942382815	-355.3933410644532	1592.845092773438	-791.6550903320315	-438.4430236816407	1447.29736328125	-889.9495239257815	-482.8532714843751	1124.584594726563	-889.8933105468752	-293.1193237304688	1380.216552734375	-878.6939697265627	-315.2197570800782	1419.768310546875	-1040.412109375	-347.9959411621094	1265.602783203125	-1206.107299804688	-319.1911621093751	1226.627685546875	-1189.690063476563	-342.7814331054688	1203.955810546875	-1240.377319335938	-343.9901733398438	1119.374633789063	-1261.689331054688	-430.2109680175782	1119.777465820313	-1230.082397460938	-371.3524169921876	928.829040527344	-1104.146362304688	-324.2859191894532	891.1719360351565	-1150.059448242188	-330.6874694824219	917.3599243164065	-1056.69921875	-341.4325866699219	1417.141235351563	-720.1531982421876	-402.7113647460939	1267.1962890625	-563.2786254882814	-376.1639404296876	1225.020385742188	-570.2271118164064	-414.1787414550782	1207.287475585938	-526.5554809570314	-419.2582092285157	1137.589965820313	-503.9452209472657	-495.8024291992189	1119.11279296875	-534.9926757812501	-355.6757507324219	909.4004516601565	-614.7393798828126	-397.968475341797	936.1343383789065	-673.0977172851564	-336.3697814941407	932.660583496094	-707.7766113281251	-335.2386474609376	924.0957641601565	-1007.176940917969	-336.9089660644532	939.3464355468752	-761.7679443359376	-486.5451965332032	1024.894409179688	-892.7525024414065	-495.4232177734376	992.9752197265627	-920.0496215820315	-496.8720703125001	995.2441406250002	-862.390808105469	-360.8019714355469	708.1358642578126	-1100.958984375	-313.4961547851563	638.2073974609376	-1108.123779296875	-268.3775024414063	652.0591430664064	-1091.176879882813	-328.2279052734376	579.3689575195314	-1103.210571289063	-309.1797180175782	476.237274169922	-1101.62060546875	-268.4625549316407	462.5150146484376	-984.5030517578127	-261.2886047363282	348.3397521972657	-1074.260375976563	-325.3689880371094	316.8169860839844	-1125.161376953125	-285.2539367675782	305.7900695800782	-1104.89892578125	-303.6629638671876	226.9254150390626	-1079.376708984375	-397.7226867675782	93.30574798583986	-1101.826049804688	-361.3207092285157	104.9374542236328	-1019.918640136719	-442.232391357422	42.69115829467774	-1053.212890625	-232.4199371337891	79.24001312255861	-1056.9619140625	-239.6039428710938	83.29917907714845	-1106.4072265625	-279.5924682617188	55.99544143676759	-1152.017822265625	-393.4732055664064	756.4571533203126	-673.9746093750001	-344.9428100585938	712.7969970703126	-667.1338500976564	-314.8193664550782	723.9747314453126	-676.1517333984376	-354.4540100097657	627.9076538085939	-665.8171386718751	-333.3642883300782	478.143768310547	-682.1342163085939	-286.2512817382813	464.4673156738282	-797.4952392578127	-287.3318786621094	326.3216247558594	-732.1142578125001	-352.7064514160157	257.4187011718751	-677.8713989257814	-315.3480224609376	247.1337585449219	-705.2234497070314	-325.0202331542969	203.0306549072266	-742.3754882812501	-411.8106689453126	88.48526000976564	-707.6851806640626	-365.7176513671876	109.1668395996094	-784.3937988281252	-446.7727050781251	44.21101379394532	-773.2588500976565	-244.8922882080079	75.2644729614258	-723.7147216796876	-258.1410522460938	75.03318023681642	-683.9246215820314	-301.0399780273438	44.30995178222657	-642.3881225585939	
1222	6.105	-236.4864044189454	1660.918701171875	-871.8465576171877	-394.2963867187501	1561.436157226563	-945.5496826171877	-355.4530639648438	1592.719970703125	-791.6121215820315	-438.771697998047	1447.18017578125	-889.8648071289065	-483.2340698242189	1124.471069335938	-889.4833984375002	-292.9656372070313	1379.923828125	-878.3603515625002	-315.7000732421876	1419.600341796875	-1040.44384765625	-347.7592773437501	1265.175170898438	-1205.509765625	-319.4102478027344	1226.255737304688	-1189.266723632813	-343.8375549316407	1203.664672851563	-1240.2275390625	-344.8773193359376	1119.126953125	-1261.568603515625	-430.9913635253907	1119.423583984375	-1229.76171875	-371.9503173828126	928.646423339844	-1103.887084960938	-324.9225463867188	890.7959594726565	-1149.760009765625	-331.1308288574219	917.1128540039065	-1056.558349609375	-341.5338745117188	1417.096801757813	-720.0852661132814	-402.8454589843751	1267.248168945313	-563.1005249023439	-376.2940673828126	1225.09521484375	-570.0538330078126	-414.3349914550782	1207.367919921875	-526.3165283203126	-419.4135742187501	1137.679321289063	-503.7202758789064	-496.0010681152345	1119.159423828125	-534.7229614257814	-355.8928222656251	909.4510498046877	-614.4356079101564	-398.0958251953126	936.1522216796877	-672.7478027343751	-336.4631958007813	932.5816650390627	-707.3723754882814	-335.6526794433594	923.9382324218752	-1006.892211914063	-337.0734252929688	939.2963867187502	-761.4743041992189	-486.8204345703126	1024.788330078125	-892.437683105469	-495.7102355957032	992.834655761719	-919.7456665039065	-497.1705932617189	995.1372680664065	-861.977722167969	-361.1235046386719	708.0682983398439	-1100.781616210938	-313.8511962890626	638.1632690429689	-1108.0576171875	-268.8364257812501	652.1242065429689	-1091.107421875	-328.4381408691407	579.2928466796876	-1103.10498046875	-309.3378601074219	476.303192138672	-1101.537231445313	-268.6714172363282	462.5262451171876	-984.464782714844	-261.3872985839844	348.3925476074219	-1074.273559570313	-324.4912719726563	316.5453796386719	-1124.897094726563	-285.2888793945313	305.8663024902344	-1104.875122070313	-303.6797485351563	226.9498596191407	-1079.311889648438	-397.6505737304689	93.21192169189455	-1101.838012695313	-361.3037719726563	104.9091720581055	-1019.872924804688	-442.2076416015626	42.68986892700196	-1053.218872070313	-232.4481048583985	79.3246307373047	-1056.968383789063	-239.6121673583985	83.34326934814455	-1106.368286132813	-279.6828002929688	56.02558517456056	-1152.001708984375	-393.3818664550782	756.3558349609376	-673.7003173828126	-344.8403015136719	712.7608032226564	-667.0890502929689	-314.6758117675782	723.9423828125001	-675.9994506835939	-354.2684020996094	627.8636474609376	-665.7008056640626	-333.1876525878907	478.0354614257814	-682.0574340820314	-286.1950073242188	464.3780822753907	-797.4912719726565	-287.2404785156251	326.3152465820313	-732.2240600585939	-352.4550781250001	257.2306213378907	-677.8496704101564	-314.8232116699219	247.0893707275391	-705.0410766601564	-324.8752441406251	202.9366912841797	-742.3746337890626	-411.8469848632814	88.46090698242189	-707.5775756835939	-365.6935119628907	109.128532409668	-784.430114746094	-446.7634887695314	44.22615051269532	-773.2257080078127	-244.8181915283204	75.01937103271486	-723.8815917968751	-257.9905090332032	74.91433715820314	-684.0716552734376	-300.9385070800782	44.19800567626954	-642.4807739257814	
